<svg width="40" height="40" viewBox="0 0 40 40" fill="none" xmlns="http://www.w3.org/2000/svg">
<circle cx="20" cy="20" r="18.3618" fill="#9747FF" stroke="white" stroke-width="2.72351"/>
<path d="M28.1525 27.3245C28.1872 26.9855 28.0909 26.5684 28.1828 26.246C28.2024 26.1773 28.2082 26.189 28.2647 26.1554L28.3697 26.1874C28.462 26.9997 28.569 27.8101 28.6907 28.6186C28.5772 28.7203 28.3006 28.6787 28.1544 28.6768L28.1525 27.3245Z" fill="white"/>
<path d="M21.7383 20.1018L21.8543 20.0966C21.9952 20.231 21.9998 21.1655 22.0189 21.4062C20.7892 21.4033 19.676 21.5097 18.4691 21.7353C18.4063 21.7462 18.3753 21.7477 18.3153 21.7256C18.1538 21.3743 18.1812 20.7918 18.153 20.407C19.3608 20.4366 20.55 20.3046 21.7383 20.1018Z" fill="white"/>
<path d="M9.43374 7.84041C9.53143 7.82925 9.60101 7.8289 9.69774 7.84603C9.83233 8.09941 9.98336 10.2016 10.0321 10.6657C10.2005 10.6546 10.3686 10.6346 10.5365 10.6174L10.5611 13.0656C10.5673 13.5485 10.614 14.0607 10.5668 14.5403C10.4869 14.5961 10.4377 14.5751 10.3422 14.569C10.1745 14.5033 9.98432 14.4201 9.85017 14.2973C9.71786 14.1763 9.66348 14.039 9.62359 13.8676C9.43909 13.076 9.4253 12.1429 9.34817 11.3266C9.23975 10.1776 9.09084 9.03032 9.00729 7.87933C9.14706 7.85877 9.29273 7.85315 9.43374 7.84041Z" fill="white"/>
<path d="M13.1442 13.0103C13.5676 12.9962 17.3685 12.9626 17.5244 13.0357C17.5277 13.1385 17.5191 13.2708 17.5581 13.3665C17.5638 13.3803 17.5702 13.3938 17.5762 13.4074C17.2024 13.8756 16.9361 14.2728 16.8024 14.8665C15.583 14.9689 14.3633 15.1486 13.1425 15.2196C13.136 14.696 13.1056 14.1608 13.1299 13.6382C13.1561 13.4333 13.1442 13.217 13.1442 13.0103Z" fill="white"/>
<path d="M25.9769 10.4156C26.4135 10.9028 26.629 11.0204 27.2224 11.2775C27.3074 11.8965 27.3892 12.5164 27.482 13.1344C27.6667 14.3635 27.9152 15.5614 27.1046 16.6416C26.3969 17.5846 24.0398 18.4941 22.9115 18.9298C22.908 18.6981 22.9116 18.4666 22.9222 18.2351C23.1912 18.2312 24.1277 18.3197 24.3063 18.1884C23.8372 18.1448 23.3572 18.1623 22.886 18.1624C22.8856 17.099 22.8707 16.0336 22.9116 14.9708C24.1371 14.8228 25.3725 14.736 26.5954 14.5702C26.3935 13.1868 26.2131 11.7932 25.9769 10.4156Z" fill="white"/>
<path d="M13.0687 9.31565C13.8678 8.50835 16.4066 8.1766 17.5314 8.04482L17.6317 8.03516L17.6339 12.932L17.6323 13.384L17.5762 13.4075C17.5701 13.3939 17.5637 13.3804 17.5581 13.3667C17.5191 13.2709 17.5277 13.1386 17.5244 13.0358C17.3684 12.9627 13.5675 12.9963 13.1442 13.0104C13.1442 13.2171 13.1561 13.4334 13.1299 13.6383C13.0927 13.3849 13.1074 13.1089 13.1111 12.8525C13.0643 11.6781 13.0833 10.4918 13.0687 9.31565Z" fill="white"/>
<path d="M17.5314 8.04482L17.6318 8.03516L17.634 12.932L17.6323 13.384L17.5762 13.4075C17.5702 13.3939 17.5638 13.3804 17.5581 13.3667C17.5191 13.2709 17.5277 13.1386 17.5244 13.0358C17.3685 12.9627 13.5676 12.9963 13.1442 13.0104C13.1442 13.2171 13.1561 13.4334 13.1299 13.6383C13.0927 13.3849 13.1075 13.1089 13.1111 12.8525C13.2154 12.9182 13.4783 12.9084 13.5956 12.8826C13.6734 12.8654 13.6596 12.8567 13.6982 12.7938L13.7422 12.8658C13.9662 12.8814 14.1898 12.7777 14.406 12.8086L14.4586 12.8663C14.789 12.9252 15.1693 12.8922 15.5058 12.8927L17.5356 12.8908L17.5314 8.04482Z" fill="white"/>
<path d="M13.6983 12.7938C13.7055 12.2479 13.8149 11.7718 14.2186 11.3776C14.5567 11.0476 15.028 10.876 15.4984 10.8841C15.9604 10.892 16.4135 11.1054 16.728 11.4415C17.0225 11.756 17.1427 12.1246 17.2021 12.5429L16.4727 12.562C16.4156 12.2416 16.2969 11.9607 16.0166 11.7691C15.7842 11.6103 15.4912 11.5664 15.219 11.6305C14.9369 11.6967 14.7101 11.8765 14.5624 12.1234C14.424 12.3546 14.4327 12.5532 14.406 12.8086C14.1898 12.7777 13.9662 12.8815 13.7423 12.8658L13.6983 12.7938Z" fill="#9747FF"/>
<path d="M17.6318 8.0352C19.1134 7.79851 23.6424 7.27841 24.8906 8.088C25.2712 10.0215 25.4274 12.0062 25.778 13.9464C24.5501 14.0689 23.3144 14.1777 22.0911 14.3387C21.755 13.633 21.2582 13.0721 20.508 12.8022C19.7647 12.5349 18.965 12.6012 18.2525 12.9307C18.0365 13.0719 17.8217 13.2074 17.6323 13.384L17.634 12.9321L17.6318 8.0352Z" fill="white"/>
<path d="M17.5309 19.5422C16.5813 19.4891 15.615 19.1885 14.698 18.9523C14.2147 18.8279 13.7115 18.7259 13.2441 18.5516C12.9813 18.4537 12.7357 18.33 12.5088 18.1644C11.8696 17.6976 11.4671 16.9503 11.3577 16.1725C11.3084 15.8217 11.3248 15.4545 11.3196 15.1006L11.2993 12.9835L11.2644 10.5181C11.259 10.0823 11.2243 9.62183 11.272 9.18967C11.3016 8.92242 11.3858 8.71253 11.5487 8.49773C12.6518 7.04302 16.0009 6.29783 17.7523 6.05755C19.9795 5.75198 24.2751 5.47893 26.1466 6.92336C26.6372 7.30201 26.6872 7.71827 26.7611 8.29338C26.653 8.33142 26.5437 8.36963 26.4437 8.42665C26.0608 8.64471 25.9352 9.00781 25.8296 9.40641C25.732 8.8227 25.7023 8.25999 25.5117 7.69306C24.8479 7.05672 23.8029 6.93065 22.9193 6.91528C20.8921 6.87987 18.7759 7.13122 16.7736 7.43582C15.8987 7.56901 15.0343 7.69113 14.1856 7.95135C13.6527 8.11476 13.0536 8.34082 12.6504 8.74152C12.5301 8.86101 12.414 9.00219 12.3789 9.17175C12.2476 9.80747 12.35 10.7575 12.3579 11.4227L12.4001 16.0251C12.9797 16.0053 13.5685 15.9159 14.1455 15.8551L17.4818 15.5049C17.4039 15.2795 17.5301 14.9476 17.5905 14.7281C17.8229 14.1701 18.1865 13.7368 18.7582 13.5071C18.7898 13.4943 18.8217 13.4822 18.8539 13.4709C18.8862 13.4595 18.9187 13.449 18.9515 13.4393C18.9842 13.4297 19.0172 13.4208 19.0504 13.4127C19.0835 13.4047 19.1169 13.3975 19.1505 13.3911C19.184 13.3847 19.2177 13.3792 19.2516 13.3745C19.2854 13.3698 19.3194 13.366 19.3534 13.363C19.3874 13.36 19.4215 13.3579 19.4556 13.3566C19.4897 13.3553 19.5239 13.3548 19.558 13.3552C19.5922 13.3557 19.6263 13.3569 19.6604 13.359C19.6945 13.3611 19.7285 13.3641 19.7625 13.368C19.7964 13.3718 19.8303 13.3764 19.8639 13.382C19.8977 13.3875 19.9312 13.3938 19.9646 13.4009C19.998 13.4081 20.0312 13.4162 20.0642 13.425C20.0972 13.4338 20.13 13.4435 20.1625 13.454C20.195 13.4645 20.2272 13.4758 20.2591 13.4878C20.2911 13.4999 20.3227 13.5128 20.354 13.5265C20.9084 13.7747 21.3022 14.2559 21.5091 14.8195C21.5429 14.9136 21.5745 15.0084 21.6039 15.1039C22.007 15.0616 22.4114 15.0242 22.8136 14.9746L22.9115 14.9707C22.8706 16.0335 22.8855 17.0989 22.8859 18.1623C23.3571 18.1622 23.8371 18.1448 24.3062 18.1883C24.1276 18.3197 23.1911 18.2311 22.9221 18.2351C22.9115 18.4665 22.9079 18.6981 22.9115 18.9298L22.8154 18.9572C21.4568 19.5323 19.8652 19.7202 18.4011 19.6321C18.1588 19.6175 17.8643 19.6221 17.632 19.5539L17.5309 19.5422Z" fill="white"/>
<path d="M26.062 10.9947L25.7985 9.19363L26.677 7.74402L27.292 11.7854L26.062 10.9947Z" fill="white"/>
<path d="M17.4819 15.505C17.4039 15.2795 17.5302 14.9477 17.5905 14.7281C17.7507 15.2742 17.6495 17.4387 17.6453 18.1406H22.8133L22.8136 14.9747L22.9116 14.9708C22.8707 16.0336 22.8856 17.099 22.8859 18.1624C23.3572 18.1623 23.8371 18.1448 24.3063 18.1884C24.1277 18.3198 23.1911 18.2312 22.9221 18.2352C22.9115 18.4666 22.908 18.6982 22.9115 18.9298L22.8155 18.9573L22.8131 18.2592L17.6339 18.2611L17.632 19.554L17.531 19.5423L17.5311 18.2352L14.2317 18.2353C13.8495 18.2364 13.45 18.2836 13.0716 18.2655C12.9765 18.2609 12.885 18.2211 12.7975 18.1867L12.8105 18.1693C14.3824 18.1346 15.9608 18.1627 17.5334 18.1624C17.5322 17.7697 17.6054 15.7066 17.4819 15.505Z" fill="white"/>
<path d="M17.634 18.2609L22.8131 18.259L22.8155 18.9571C21.4569 19.5321 19.8652 19.7201 18.4011 19.6319C18.1588 19.6174 17.8643 19.622 17.632 19.5538L17.634 18.2609Z" fill="white"/>
<path d="M17.5906 14.728C17.823 14.17 18.1866 13.7367 18.7583 13.507C18.7899 13.4941 18.8218 13.482 18.854 13.4707C18.8862 13.4594 18.9187 13.4489 18.9515 13.4392C18.9843 13.4295 19.0173 13.4207 19.0505 13.4126C19.0836 13.4046 19.117 13.3974 19.1505 13.391C19.1841 13.3846 19.2178 13.3791 19.2517 13.3744C19.2855 13.3697 19.3194 13.3658 19.3535 13.3629C19.3875 13.3599 19.4216 13.3577 19.4557 13.3564C19.4898 13.3552 19.5239 13.3547 19.5581 13.3551C19.5922 13.3555 19.6264 13.3568 19.6604 13.3589C19.6946 13.361 19.7286 13.364 19.7625 13.3679C19.7965 13.3717 19.8303 13.3763 19.864 13.3818C19.8977 13.3873 19.9313 13.3937 19.9647 13.4008C19.9981 13.408 20.0313 13.416 20.0642 13.4249C20.0973 13.4337 20.13 13.4434 20.1625 13.4539C20.195 13.4644 20.2273 13.4756 20.2592 13.4877C20.2912 13.4998 20.3228 13.5127 20.3541 13.5264C20.9084 13.7745 21.3023 14.2558 21.5092 14.8194C21.543 14.9135 21.5746 15.0083 21.604 15.1038C22.0071 15.0615 22.4115 15.0241 22.8137 14.9745L22.8133 18.1404H17.6453C17.6495 17.4385 17.7507 15.274 17.5906 14.728Z" fill="white"/>
<path d="M13.3098 33.9066C13.2304 32.2555 13.1414 30.6048 13.0431 28.9547C12.9939 28.1707 12.8783 27.3699 12.8795 26.586C12.8799 26.275 12.9034 25.9092 13.0215 25.6183C13.4815 24.4864 15.6072 23.5218 16.6846 23.0687C19.3239 21.9588 22.248 21.8742 24.9929 22.6227C25.4729 22.7536 25.9526 22.8862 26.4127 23.0778C27.1539 23.3863 27.7326 23.7728 28.048 24.5291C28.2338 25.0671 28.3315 25.6205 28.3697 26.1875L28.2646 26.1555C28.2081 26.1892 28.2023 26.1774 28.1827 26.2461C28.0908 26.5685 28.1871 26.9857 28.1524 27.3246L28.1543 28.677C28.3005 28.6788 28.5771 28.7205 28.6906 28.6187L28.7142 28.7646C28.9412 30.2879 29.1366 32.0164 29.4538 33.5048L28.793 33.9247C28.7476 33.956 28.6925 34.0054 28.6427 34.0261C28.4802 34.1282 28.3191 34.2353 28.1531 34.3315L28.0613 34.3643C27.8008 34.5714 27.4496 34.7235 27.1488 34.8662C25.7791 35.5162 24.3825 35.9334 22.9011 36.2379L22.8044 36.2488C21.3837 36.5353 19.8742 36.5743 18.4333 36.4493C18.1742 36.4268 17.8778 36.4166 17.6271 36.3484L17.5102 36.3452C16.0523 36.0951 14.7293 35.7059 13.3604 35.1544L13.3124 34.0079L13.3098 33.9066Z" fill="white"/>
<path d="M22.7503 31.0768L22.9247 30.9263C22.8883 31.8894 22.962 32.8645 22.8985 33.8239C22.8638 33.4664 22.9161 33.1815 22.7551 32.8452C22.7214 32.5965 22.6929 32.347 22.6623 32.0978C22.7129 32.0889 22.7149 32.1023 22.7348 32.0652C22.8318 31.8844 22.8206 31.2616 22.7503 31.0768Z" fill="white"/>
<path d="M28.0481 24.5291C28.2339 25.067 28.3316 25.6204 28.3697 26.1874L28.2646 26.1554C28.2081 26.1891 28.2023 26.1773 28.1827 26.246C28.0909 26.5684 28.1871 26.9856 28.1524 27.3245C28.1322 27.0573 28.1171 26.7899 28.1072 26.5221C28.0626 27.139 28.1618 28.1388 28.0585 28.6738C28.0094 28.1644 28.046 27.6247 28.0424 27.1118C28.0365 26.2486 28.0094 25.3926 28.0481 24.5291Z" fill="white"/>
<path d="M17.1231 31.2419C17.3766 31.0494 17.6606 30.8637 17.8872 30.641L18.3333 31.2653C18.1112 31.434 17.7693 31.6331 17.6133 31.8631L17.546 31.8528C17.4233 31.6378 17.2697 31.441 17.1231 31.2419Z" fill="#9747FF"/>
<path d="M23.9976 25.8525C24.1719 26.0177 24.3138 26.2756 24.4536 26.4736L23.6947 27.0465C23.5263 26.849 23.3719 26.6351 23.2122 26.4301L23.9976 25.8525Z" fill="#9747FF"/>
<path d="M24.1081 29.7516C24.3951 29.8924 24.7046 30.0043 25.0002 30.1273L24.6736 30.852L23.7882 30.4304L24.1081 29.7516Z" fill="#9747FF"/>
<path d="M16.8837 26.8671C17.1704 27.0006 17.4686 27.1119 17.7625 27.2289C17.6979 27.4548 17.6045 27.7404 17.4683 27.9315C17.2696 27.9509 16.7807 27.6643 16.5794 27.5764C16.672 27.3361 16.7784 27.102 16.8837 26.8671Z" fill="#9747FF"/>
<path d="M20.1885 24.5178C20.2895 24.5033 20.3754 24.4874 20.4766 24.5128C20.6746 24.6945 20.6454 25.1885 20.6739 25.4459C20.5334 25.4638 20.3927 25.4797 20.2517 25.4937C20.1535 25.512 20.0733 25.5322 19.9744 25.5042C19.7914 25.307 19.8185 24.8157 19.7815 24.5511L20.1885 24.5178Z" fill="#9747FF"/>
<path d="M17.0108 28.9998L17.0377 28.9953C17.1639 28.9751 17.2388 28.9537 17.3466 29.0318C17.4538 29.2235 17.4405 29.519 17.464 29.7378L16.742 29.8186C16.643 29.8288 16.6036 29.8486 16.517 29.7952C16.4128 29.5768 16.4275 29.3047 16.4105 29.0661C16.6108 29.0485 16.811 29.0224 17.0108 28.9998Z" fill="#9747FF"/>
<path d="M22.0624 24.6262C22.304 24.7469 22.5472 24.8643 22.792 24.9782C22.6521 25.2613 22.5235 25.5514 22.3902 25.8378C22.1499 25.748 21.9137 25.6384 21.6771 25.5386C21.8105 25.2366 21.9468 24.9356 22.0624 24.6262Z" fill="#9747FF"/>
<path d="M24.1088 27.9589L25.0779 27.8629L25.1457 28.6753C24.9642 28.6742 24.7998 28.6848 24.6207 28.7162L24.2043 28.738L24.1088 27.9589Z" fill="#9747FF"/>
<path d="M18.392 25.1925C18.5754 25.2859 18.8499 25.7726 18.9797 25.9522L18.3698 26.435C18.1675 26.1664 17.9666 25.8967 17.767 25.6261C17.9765 25.4833 18.1849 25.3388 18.392 25.1925Z" fill="#9747FF"/>
<path d="M28.0586 28.6739C28.1619 28.1389 28.0626 27.139 28.1073 26.5222C28.1172 26.7899 28.1323 27.0574 28.1525 27.3246L28.1544 28.677C28.3006 28.6788 28.5772 28.7204 28.6907 28.6187L28.7143 28.7646L28.1585 28.7585L28.1541 33.9017C28.3646 33.9033 28.5851 33.8926 28.7931 33.9247C28.7477 33.956 28.6926 34.0054 28.6428 34.0261C28.4803 34.1282 28.3192 34.2353 28.1532 34.3315L28.0614 34.3643C28.0593 34.2421 28.0616 34.1183 28.0526 33.9966L22.9035 34.0045L22.9012 36.2379L22.8045 36.2488C22.803 35.5009 22.8113 34.7514 22.7987 34.0036L17.6371 34.0032C17.6293 34.7849 17.6259 35.5667 17.6272 36.3484L17.5103 36.3451C17.6208 36.0436 17.543 34.426 17.5399 34.0027L13.3125 34.0078L13.3099 33.9066C14.7111 33.9675 16.1386 33.9079 17.5423 33.9036C17.5374 33.2201 17.5387 32.5365 17.5461 31.853L17.6135 31.8633C17.6563 32.5398 17.6314 33.2272 17.6293 33.9052C19.3541 33.9254 21.079 33.9242 22.8038 33.9014C22.8051 33.6804 22.8576 33.2706 22.7683 33.075L22.7551 32.8453C22.9162 33.1816 22.8638 33.4666 22.8985 33.824L22.9304 33.892C23.3119 33.9714 23.9929 33.9094 24.4019 33.9093L28.0606 33.9017L28.0567 28.7563C27.2772 28.7616 26.4977 28.7614 25.7182 28.7559C25.3518 28.75 24.9878 28.7175 24.6208 28.7161C24.7999 28.6848 24.9643 28.6741 25.1457 28.6753C26.1159 28.6914 27.0882 28.6755 28.0586 28.6739Z" fill="white"/>
<path d="M28.1532 34.3316C28.1528 34.2383 28.1574 34.1562 28.1724 34.0643C28.2064 34.0254 28.2297 33.9832 28.281 33.9664C28.3992 33.9278 28.5356 33.9743 28.6428 34.0262C28.4803 34.1283 28.3192 34.2353 28.1532 34.3316Z" fill="white"/>
<path d="M28.1584 28.7583L28.7143 28.7645C28.9412 30.2877 29.1366 32.0162 29.4538 33.5046L28.793 33.9245C28.585 33.8924 28.3645 33.9031 28.154 33.9015L28.1584 28.7583Z" fill="white"/>
<path d="M28.0526 33.9966C28.0616 34.1183 28.0593 34.2421 28.0614 34.3643C27.8009 34.5713 27.4497 34.7235 27.149 34.8662C25.7792 35.5162 24.3827 35.9334 22.9012 36.2379L22.9035 34.0045L28.0526 33.9966Z" fill="white"/>
<path d="M13.3124 34.0077L17.5397 34.0026C17.5429 34.4259 17.6206 36.0434 17.5102 36.345C16.0522 36.0949 14.7293 35.7057 13.3603 35.1542L13.3124 34.0077Z" fill="white"/>
<path d="M17.6371 34.0029L22.7987 34.0034C22.8112 34.7511 22.803 35.5006 22.8045 36.2485C21.3838 36.535 19.8743 36.574 18.4334 36.449C18.1742 36.4265 17.8779 36.4163 17.6271 36.3481C17.6259 35.5664 17.6292 34.7847 17.6371 34.0029Z" fill="white"/>
<path d="M21.9217 31.6555C20.9172 31.6789 19.771 31.8429 18.9293 31.1799C18.8905 31.1492 18.8526 31.1176 18.8154 31.085C18.7783 31.0523 18.7419 31.0188 18.7064 30.9845C18.6709 30.95 18.6363 30.9147 18.6026 30.8786C18.5688 30.8424 18.536 30.8054 18.5042 30.7676C18.4723 30.7299 18.4414 30.6913 18.4115 30.6519C18.3816 30.6126 18.3526 30.5725 18.3247 30.5317C18.2967 30.4909 18.2698 30.4494 18.2439 30.4073C18.2181 30.3652 18.1933 30.3224 18.1696 30.2791C18.1459 30.2357 18.1233 30.1917 18.1018 30.1472C18.0803 30.1027 18.0599 30.0577 18.0407 30.0122C18.0214 29.9666 18.0033 29.9206 17.9864 29.8741C17.9694 29.8277 17.9536 29.7809 17.939 29.7337C17.9244 29.6864 17.9109 29.6388 17.8988 29.591C17.8865 29.5431 17.8755 29.4949 17.8656 29.4464C17.8559 29.3979 17.8473 29.3493 17.8399 29.3004C17.8325 29.2515 17.8264 29.2025 17.8215 29.1533C17.8163 29.1046 17.8123 29.0559 17.8096 29.007C17.8068 28.9582 17.8053 28.9093 17.805 28.8604C17.8047 28.8114 17.8055 28.7625 17.8077 28.7136C17.8098 28.6647 17.8131 28.6159 17.8176 28.5672C17.8221 28.5185 17.8278 28.4699 17.8347 28.4215C17.8416 28.373 17.8497 28.3248 17.8591 28.2768C17.8683 28.2287 17.8788 28.1809 17.8904 28.1334C17.9021 28.0859 17.9149 28.0387 17.9289 27.9918C17.9429 27.9449 17.958 27.8984 17.9743 27.8522C17.9907 27.8061 18.0081 27.7604 18.0266 27.7151C18.0452 27.6698 18.0648 27.6251 18.0856 27.5808C18.1064 27.5364 18.1282 27.4927 18.1512 27.4494C18.1741 27.4062 18.1981 27.3636 18.2231 27.3215C18.2481 27.2795 18.2742 27.2381 18.3013 27.1974C18.3284 27.1566 18.3565 27.1165 18.3856 27.0772C18.4146 27.0378 18.4446 26.9992 18.4756 26.9613C18.506 26.9241 18.5372 26.8876 18.5694 26.8518C18.6015 26.8161 18.6346 26.7812 18.6685 26.7472C18.7024 26.7131 18.7371 26.6799 18.7727 26.6476C18.8082 26.6152 18.8446 26.5838 18.8817 26.5534C18.9188 26.5229 18.9567 26.4933 18.9954 26.4647C19.034 26.4361 19.0733 26.4085 19.1133 26.3818C19.1533 26.3552 19.1939 26.3295 19.2352 26.3048C19.2765 26.2802 19.3183 26.2567 19.3608 26.2342C19.4032 26.2117 19.4462 26.1902 19.4897 26.1698C19.5333 26.1494 19.5773 26.1302 19.6218 26.112C19.6663 26.0938 19.7112 26.0767 19.7566 26.0608C19.8019 26.0449 19.8476 26.0301 19.8937 26.0164C19.9398 26.0028 19.9862 25.9903 20.0329 25.979C20.0796 25.9677 20.1266 25.9575 20.1738 25.9485C20.221 25.9395 20.2684 25.9318 20.316 25.9251C20.3636 25.9185 20.4114 25.9131 20.4592 25.9089C21.3038 25.8301 22.0965 26.068 22.7485 26.6153C23.3322 27.1054 23.7044 27.8514 23.7612 28.6105C23.8287 29.5139 23.4989 30.2535 22.9246 30.9263L22.7501 31.0768C22.8205 31.2616 22.8317 31.8845 22.7347 32.0653C22.7148 32.1023 22.7128 32.089 22.6622 32.0978C22.6928 32.347 22.7213 32.5965 22.755 32.8452L22.7681 33.0749C22.2921 33.2967 21.8261 33.5411 21.3583 33.7799C21.0507 33.7067 19.9555 33.5137 19.7961 33.2919C19.7503 33.2282 19.756 33.2131 19.768 33.141C20.4257 32.9595 21.3191 33.0419 21.9097 32.6714L21.8476 32.6927L21.8696 32.6656C21.805 32.6347 20.9046 32.7653 20.7566 32.776C20.5069 32.7941 19.9179 32.8878 19.729 32.7009C19.6823 32.6549 19.6953 32.6549 19.696 32.5956C19.749 32.538 19.7961 32.5128 19.8733 32.5006C20.1126 32.4627 20.364 32.4679 20.6058 32.4393C21.0842 32.3784 21.5569 32.2879 22.0241 32.168C21.451 32.1558 20.1757 32.3461 19.7006 32.188C19.6618 32.0914 19.6596 32.0176 19.661 31.9143C19.8153 31.8333 20.1948 31.8896 20.3832 31.8823C20.8706 31.8635 21.4184 31.805 21.8879 31.666C21.8993 31.6626 21.9104 31.659 21.9217 31.6555Z" fill="#9747FF"/>
<path d="M21.2739 12.1138C21.2811 11.568 21.3904 11.0918 21.7942 10.6977C22.1323 10.3676 22.6036 10.196 23.074 10.2041C23.536 10.212 23.9891 10.4254 24.3036 10.7616C24.598 11.0761 24.7183 11.4446 24.7777 11.8629L24.0483 11.8821C23.9912 11.5617 23.8724 11.2808 23.5922 11.0892C23.3598 10.9303 23.0668 10.8865 22.7946 10.9505C22.5125 11.0168 22.2857 11.1965 22.138 11.4434C21.9996 11.6747 22.0082 11.8733 21.9816 12.1287C21.7654 12.0978 21.5418 12.2015 21.3179 12.1859L21.2739 12.1138Z" fill="#9747FF"/>
<path d="M22.7503 31.0769C22.8206 31.2618 22.8318 31.8846 22.7348 32.0654C22.715 32.1024 22.7129 32.0891 22.6623 32.098C22.6376 31.8529 22.5608 31.5987 22.577 31.3517C22.5868 31.2047 22.646 31.1673 22.7503 31.0769Z" fill="white"/>
<path d="M18.5802 28.6743C18.6106 28.4897 18.6451 28.3075 18.7061 28.1303C18.718 28.0961 18.7308 28.0622 18.7445 28.0286C18.7581 27.995 18.7726 27.9619 18.7879 27.9291C18.8031 27.8962 18.8193 27.8638 18.8362 27.8317C18.853 27.7997 18.8707 27.7681 18.8892 27.7369C18.9077 27.7058 18.9269 27.6752 18.947 27.6449C18.9669 27.6148 18.9877 27.5851 19.0092 27.5559C19.0307 27.5268 19.0529 27.4982 19.0758 27.4701C19.0987 27.4421 19.1223 27.4146 19.1466 27.3877C19.1708 27.3608 19.1957 27.3346 19.2213 27.3089C19.2469 27.2832 19.2731 27.2582 19.3 27.2339C19.3268 27.2096 19.3542 27.1859 19.3822 27.163C19.4102 27.14 19.4388 27.1177 19.4679 27.0961C19.497 27.0746 19.5266 27.0538 19.5568 27.0337C19.5869 27.0136 19.6176 26.9943 19.6487 26.9758C19.6798 26.9572 19.7113 26.9394 19.7434 26.9224C19.7754 26.9054 19.8077 26.8893 19.8405 26.8739C19.8738 26.858 19.9074 26.8429 19.9414 26.8287C19.9754 26.8144 20.0097 26.8011 20.0444 26.7885C20.079 26.776 20.1139 26.7643 20.1492 26.7536C20.1844 26.7427 20.2198 26.7328 20.2556 26.7238C20.2913 26.7147 20.3272 26.7065 20.3634 26.6993C20.3995 26.692 20.4358 26.6857 20.4722 26.6802C20.5087 26.6747 20.5452 26.6701 20.5819 26.6665C20.6185 26.6629 20.6553 26.6601 20.692 26.6582C20.7289 26.6564 20.7657 26.6555 20.8026 26.6555C20.8394 26.6555 20.8762 26.6564 20.913 26.6582C20.9498 26.6601 20.9866 26.6628 21.0233 26.6664C21.0599 26.67 21.0965 26.6746 21.1329 26.68C21.1693 26.6855 21.2056 26.6918 21.2417 26.6991C21.2779 26.7064 21.3138 26.7145 21.3495 26.7235C21.3853 26.7325 21.4208 26.7424 21.456 26.7532C21.4912 26.764 21.5262 26.7756 21.5608 26.7882C22.1322 26.997 22.5436 27.4043 22.7973 27.9504C22.7926 28.1836 22.7905 28.4168 22.7911 28.6499C21.3894 28.6615 19.9806 28.6324 18.5802 28.6743Z" fill="white"/>
<path d="M22.7974 27.9503C23.0188 28.4808 23.0886 28.9804 22.8704 29.5263C22.8582 29.5564 22.8456 29.5864 22.8326 29.6162C22.6759 30.0226 22.4371 30.3704 22.0853 30.6317C21.6305 30.9697 21.0428 31.127 20.4813 31.0354C19.89 30.9389 19.3071 30.5947 18.9597 30.1034C18.7139 29.7557 18.5148 29.1941 18.5905 28.7663L18.5802 28.6742C19.9806 28.6323 21.3895 28.6614 22.7911 28.6498C22.7906 28.4167 22.7927 28.1835 22.7974 27.9503Z" fill="white"/>
<path d="M22.7973 27.9503C23.0188 28.4808 23.0886 28.9804 22.8703 29.5263C22.8582 29.5564 22.8456 29.5864 22.8325 29.6162C22.7735 29.3376 22.7893 29.0504 22.7898 28.7668L18.5904 28.7663L18.5802 28.6742C19.9806 28.6323 21.3894 28.6614 22.7911 28.6498C22.7905 28.4167 22.7926 28.1835 22.7973 27.9503Z" fill="white"/>
<path d="M12.2553 24.8608L12.5348 25.0099C12.4573 25.1673 12.372 25.3249 12.3034 25.4861C12.2716 25.2815 12.2682 25.0676 12.2553 24.8608Z" fill="white"/>
<path d="M9.15646 29.7441C9.27533 28.8123 9.51272 26.8986 9.81345 26.0696C9.99821 25.5601 10.3865 25.1014 10.884 24.8749C11.3199 24.6764 11.8131 24.6917 12.2554 24.8608C12.2683 25.0675 12.2716 25.2814 12.3034 25.4861C12.0317 26.3785 12.2007 27.3618 12.2587 28.2752L12.3753 30.2618C12.2279 30.298 12.08 30.3338 11.9296 30.3553C11.0757 30.477 9.85447 30.2666 9.15646 29.7441Z" fill="white"/>
<path d="M12.4446 30.8937C10.828 31.2452 9.54535 30.7473 9.15 30.4545L9.06214 32.2555C9.37842 32.7123 10.6435 33.7051 12.6203 34.8033L12.4446 30.8937Z" fill="white"/>
<path d="M28.5099 23.084L28.2647 23.2844C28.3712 23.4238 28.4854 23.5619 28.584 23.7067C28.5755 23.4998 28.5373 23.2893 28.5099 23.084Z" fill="white"/>
<path d="M32.4969 27.2737C32.1996 26.3827 31.5957 24.5513 31.1399 23.7963C30.8599 23.3323 30.39 22.9576 29.8581 22.8319C29.3919 22.7216 28.911 22.8322 28.51 23.0839C28.5374 23.2892 28.5756 23.4997 28.584 23.7066C29.0237 24.5294 29.0485 25.5269 29.1687 26.4342L29.4395 28.4057C29.5911 28.4126 29.7431 28.4191 29.8948 28.4109C30.7562 28.3648 31.9134 27.9216 32.4969 27.2737Z" fill="white"/>
<path d="M29.4942 29.0393C31.1482 29.0706 32.31 28.3335 32.6411 27.9696L33.1345 29.7519C32.9128 30.2614 31.5092 31.7286 30.0156 32.9147L29.4942 29.0393Z" fill="white"/>
<path d="M9.28164 8.22729C9.0005 8.22729 8.7545 7.96372 8.66665 7.83194L10.0284 6.68982C10.5555 7.87587 9.63306 8.22729 9.28164 8.22729Z" fill="white"/>
</svg>
